# xmcd CD database file
#
# Track frame offsets:
#	150
#	14076
#	28153
#	43212
#	56912
#	71745
#	84094
#	97300
#	108622
#	120399
#	133412
#	144742
#	155741
#	166823
#	178480
#	190852
#	205530
#	217462
#	232124
#	245115
#	259385
#	272698
#
# Disc length: 3813 seconds
#
# Revision: 0
# Processed by: cddbd v1.5PL3 Copyright (c) Steve Scherf et al.
# Submitted via: CDex 1.40Release
#
DISCID=6b0ee316
DTITLE=Eddy Arnold - Eddy's Song, CD 3, The Cattle Call
DYEAR=2003
DGENRE=Country
TTITLE0=The Cattle Call (1)
TTITLE1=Mother's Prayer
TTITLE2=Mommy Please Stay Home With Me
TTITLE3=Did You See My Daddy Over There
TTITLE4=Many Years Ago (1)
TTITLE5=I Walk Alone (1)
TTITLE6=You Must Walk The Line
TTITLE7=(I'll Have To) Live And Learn
TTITLE8=Be Sure There's No Mistake
TTITLE9=I Talk To Myself About You
TTITLE10=Can't Win Can't Place Can't Show
TTITLE11=Easy Rockin' Chair
TTITLE12=It's A Sin
TTITLE13=Don't Bother To Cry
TTITLE14=The Prisoner's Song
TTITLE15=Rockin' Alone (In An Old Rocking Chair)
TTITLE16=It Makes No Difference Now
TTITLE17=Will The Circle Be Unbroken
TTITLE18=Seven Years With The Wrong Woman
TTITLE19=I'm Thinking Tonight Of My Blue Eyes
TTITLE20=Who At My Door Is Standing
TTITLE21=(In The) Hills Of Tomorrow
EXTD=YEAR: 2003 ID3G: 2
EXTT0=
EXTT1=
EXTT2=
EXTT3=
EXTT4=
EXTT5=
EXTT6=
EXTT7=
EXTT8=
EXTT9=
EXTT10=
EXTT11=
EXTT12=
EXTT13=
EXTT14=
EXTT15=
EXTT16=
EXTT17=
EXTT18=
EXTT19=
EXTT20=
EXTT21=
PLAYORDER=
